<svg height="368pt" viewBox="0 0 368 368" width="368pt" xmlns="http://www.w3.org/2000/svg"><path d="m232 8h-96c-35.359375 0-64 28.640625-64 64v96h48v-80c0-17.679688 14.320312-32 32-32h64c17.679688 0 32 14.320312 32 32v80h48v-96c0-35.359375-28.640625-64-64-64zm0 0" fill="#cce4ff"/><path d="m232 264c0-17.679688-14.320312-32-32-32h-32c-17.679688 0-32 14.320312-32 32v32h96zm0 0" fill="#cce4ff"/><g fill="#007aff"><path d="m200 224h-32c-22.054688 0-40 17.945312-40 40v32c0 4.425781 3.585938 8 8 8h96c4.425781 0 8-3.574219 8-8v-32c0-22.054688-17.945312-40-40-40zm24 64h-80v-24c0-13.230469 10.769531-24 24-24h32c13.230469 0 24 10.769531 24 24zm0 0"/><path d="m360 352h-32.207031c5.078125-6.703125 8.207031-14.960938 8.207031-24v-128c0-19.3125-13.769531-35.472656-32-39.191406v-88.808594c0-39.695312-32.296875-72-72-72h-96c-39.695312 0-72 32.304688-72 72v88.808594c-18.230469 3.71875-32 19.871094-32 39.191406v128c0 9.039062 3.128906 17.296875 8.207031 24h-32.207031c-4.414062 0-8 3.574219-8 8s3.585938 8 8 8h352c4.425781 0 8-3.574219 8-8s-3.574219-8-8-8zm-224-336h96c30.871094 0 56 25.121094 56 56v88h-32v-72c0-22.054688-17.945312-40-40-40h-64c-22.054688 0-40 17.945312-40 40v72h-32v-88c0-30.878906 25.121094-56 56-56zm-8 144v-72c0-13.230469 10.769531-24 24-24h64c13.230469 0 24 10.769531 24 24v72zm-80 168v-128c0-13.230469 10.769531-24 24-24h224c13.230469 0 24 10.769531 24 24v128c0 13.230469-10.769531 24-24 24h-224c-13.230469 0-24-10.769531-24-24zm0 0"/></g></svg>